<svg width="29" height="31" viewBox="0 0 29 31" fill="none" xmlns="http://www.w3.org/2000/svg">
<g clip-path="url(#clip0_1_2)">
<path fill-rule="evenodd" clip-rule="evenodd" d="M28.1826 19.5169C27.9115 18.5208 27.0154 17.5393 26.0741 17.0046C24.794 16.2795 23.9732 15.818 22.678 15.0929L18.2276 12.5953L11.1718 8.64005V5.00711C11.1718 3.24924 11.7591 1.81364 13.3028 0.802867C13.845 0.502564 14.2592 0.275505 14.8917 0.129016C16.089 -0.149314 17.3616 0.0264735 18.4309 0.619755C20.1713 1.58407 21.9078 2.55964 23.6404 3.53304C24.3293 3.92003 25.0175 4.30669 25.7052 4.69216C26.4582 5.10965 27.0832 5.71758 27.5199 6.44271C27.9416 7.14585 28.1826 7.95887 28.1826 8.83048V12.0093V19.5169ZM3.53922 23.7908C4.74406 24.0984 6.03926 23.9446 7.11609 23.344L10.7607 21.3005L10.7532 8.39476C10.7532 7.88525 10.755 7.44645 10.7568 7.02924C10.76 6.25314 10.763 5.55107 10.7532 4.60801C10.7532 3.00395 11.461 1.97121 11.9656 1.48779C11.3469 1.8346 10.6453 2.2275 9.91305 2.63759C8.31029 3.53517 6.5598 4.51548 5.21093 5.27454L2.16118 6.98114C1.49852 7.40596 0.948812 7.98459 0.572299 8.65844C0.203317 9.31764 0 10.0721 0 10.8704V19.3082C0 20.1578 0.233438 20.9562 0.647602 21.6374C1.28014 22.7068 2.31932 23.4832 3.53922 23.7908ZM25.0729 16.9324L22.2265 15.3357L10.7203 21.7959L7.17353 23.7881C6.02893 24.4327 4.53794 24.44 3.88281 24.2715L13.4839 29.6623C14.2143 30.0652 15.0201 30.2703 15.8634 30.2703C16.7068 30.2703 17.5276 30.0579 18.2656 29.655C20.0948 28.6468 21.9199 27.6187 23.744 26.5913C24.3978 26.223 25.0518 25.8546 25.7055 25.4874C26.4359 25.0699 27.0459 24.4766 27.4676 23.7661C27.8742 23.085 28.1076 22.2939 28.1076 21.4663C28.1076 20.5873 27.9194 19.789 27.4676 19.0199C26.835 17.9359 26.1422 17.5257 25.0729 16.9324Z" fill="black" fill-opacity="0.95"/>
</g>
<defs>
<clipPath id="clip0_1_2">
<rect width="29" height="31" fill="white"/>
</clipPath>
</defs>
</svg>
