<svg width="160" height="31" viewBox="0 0 160 31" fill="none" xmlns="http://www.w3.org/2000/svg">
<path fill-rule="evenodd" clip-rule="evenodd" d="M28.1826 19.5169C27.9115 18.5208 27.0154 17.5393 26.0741 17.0046C24.794 16.2795 23.9732 15.818 22.678 15.0929L18.2276 12.5953L11.1718 8.64005V5.00711C11.1718 3.24924 11.7591 1.81364 13.3028 0.802867C13.845 0.502564 14.2592 0.275505 14.8917 0.129016C16.089 -0.149314 17.3616 0.0264734 18.4309 0.619755C20.1713 1.58407 21.9078 2.55964 23.6404 3.53304C24.3293 3.92003 25.0175 4.30669 25.7052 4.69216C26.4582 5.10965 27.0832 5.71758 27.5199 6.44271C27.9416 7.14585 28.1826 7.95887 28.1826 8.83048V12.0093V19.5169ZM3.53922 23.7908C4.74406 24.0984 6.03926 23.9446 7.11609 23.344L10.7607 21.3005L10.7532 8.39476C10.7532 7.88525 10.755 7.44645 10.7568 7.02924L10.7568 7.02865C10.76 6.25255 10.763 5.55107 10.7532 4.60801C10.7532 3.00395 11.461 1.97121 11.9656 1.48779C11.3469 1.8346 10.6453 2.2275 9.91305 2.63759L9.91224 2.63805C8.30948 3.53563 6.5598 4.51548 5.21093 5.27454L2.16118 6.98114C1.49852 7.40596 0.948812 7.98459 0.572299 8.65844C0.203317 9.31764 0 10.0721 0 10.8704V19.3082C0 20.1578 0.233438 20.9562 0.647602 21.6374C1.28014 22.7068 2.31932 23.4832 3.53922 23.7908ZM25.0729 16.9324L22.2265 15.3357L10.7203 21.7959L7.17353 23.7881C6.02893 24.4327 4.53794 24.44 3.88281 24.2715L13.4839 29.6623C14.2143 30.0652 15.0201 30.2703 15.8634 30.2703C16.7068 30.2703 17.5276 30.0579 18.2656 29.655C20.0948 28.6468 21.9199 27.6187 23.744 26.5913L23.7444 26.591C24.3982 26.2227 25.0518 25.8546 25.7055 25.4874C26.4359 25.0699 27.0459 24.4766 27.4676 23.7661C27.8742 23.085 28.1076 22.2939 28.1076 21.4663C28.1076 20.5873 27.9194 19.789 27.4676 19.0199C26.835 17.9359 26.1422 17.5257 25.0729 16.9324Z" fill="black" fill-opacity="0.95"/>
<path fill-rule="evenodd" clip-rule="evenodd" d="M134.989 6.29078H128.594C128.443 6.29078 128.291 6.17199 128.291 5.99381V2.28174L125.715 2.72719V16.5955C125.715 18.2585 125.867 20.3076 126.928 21.6736C128.049 23.0694 129.837 23.3663 131.534 23.3663C132.959 23.3663 134.232 23.0991 135.565 22.5645L135.08 20.5452C134.444 20.7827 133.807 21.0203 133.11 21.1391C132.231 21.2579 131.11 21.2876 130.292 20.9906C128.443 20.3967 128.261 18.1991 128.261 16.5658V8.57742C128.261 8.42894 128.382 8.28045 128.564 8.28045H134.959V6.29078H134.989Z" fill="black" fill-opacity="0.95"/>
<path fill-rule="evenodd" clip-rule="evenodd" d="M104.384 14.6407C104.384 16.3334 104.051 18.0855 102.99 19.4516C102.02 20.6988 100.686 21.2631 99.1105 21.2631C97.5345 21.2631 96.201 20.6691 95.2312 19.4516C94.2917 18.2637 93.8371 16.6601 93.8371 14.6407C93.8371 12.6214 94.2917 11.0177 95.2312 9.82988C96.201 8.58262 97.5345 8.01838 99.1105 8.01838C100.686 8.01838 102.02 8.61232 102.99 9.82988C104.051 11.1959 104.384 12.948 104.384 14.6407ZM106.926 16.5419C107.381 13.691 106.835 10.4244 104.835 8.2565C103.35 6.65288 101.319 5.85107 99.107 5.85107C96.8946 5.85107 94.864 6.62319 93.3789 8.2565C91.7727 9.9789 91.1362 12.3249 91.1362 14.6413C91.1362 16.9576 91.7727 19.2739 93.3789 21.026C94.864 22.6594 96.8946 23.4315 99.107 23.4315C101.319 23.4315 103.35 22.6594 104.835 21.026C105.987 19.7788 106.653 18.1752 106.926 16.5419Z" fill="black" fill-opacity="0.95"/>
<path fill-rule="evenodd" clip-rule="evenodd" d="M66.7368 5.85107C65.282 5.85107 63.3424 6.02925 61.9483 6.5044L62.2513 8.49407C62.3726 8.46438 62.5241 8.40498 62.6756 8.37529C62.9787 8.31589 63.3121 8.2268 63.7061 8.16741C64.4941 8.01893 65.4336 7.95953 66.4943 7.95953C67.5248 7.95953 68.4946 8.13771 69.3432 8.76134C69.9796 9.26619 70.4039 9.9789 70.5858 10.7807C70.6767 11.2262 70.8585 12.8595 70.7676 13.2752C70.7373 13.4237 70.5858 13.5128 70.4039 13.4831C69.5856 13.2752 68.5552 13.1267 67.7369 13.0674C66.6762 13.008 65.5245 13.1267 64.4941 13.3346C63.3727 13.5722 62.1907 14.077 61.3724 14.9085C60.4935 15.7994 60.1602 16.8685 60.1602 18.0861C60.1602 19.66 60.6148 21.1745 61.9786 22.1248C63.3121 23.0751 65.1305 23.3127 66.7065 23.3127C68.1309 23.3127 69.525 23.1939 70.9494 23.0157C71.7374 22.9266 72.5254 22.8078 73.3134 22.6891V12.1765C73.3134 10.5728 73.0406 8.85043 71.9193 7.60317C71.4344 7.03894 70.7676 6.62319 69.919 6.32622C68.8886 5.96986 67.7672 5.85107 66.7368 5.85107ZM67.0106 21.3257C65.9802 21.3257 64.8285 21.1772 63.9193 20.6426C63.101 20.1675 62.707 19.3063 62.707 18.0887C62.707 16.9009 63.3132 16.0397 64.4042 15.5348C65.1619 15.1785 65.9196 15.0597 66.7379 15.03C67.7077 14.9706 69.6473 15.0003 70.5262 15.416C70.6475 15.4457 70.7081 15.5645 70.7081 15.6833V20.8208C70.7081 20.9396 70.6172 21.0584 70.4959 21.0881C69.4655 21.3257 68.1017 21.3257 67.0106 21.3257Z" fill="black" fill-opacity="0.95"/>
<path fill-rule="evenodd" clip-rule="evenodd" d="M123.928 14.6687C123.928 12.3524 123.291 9.97664 121.594 8.25424C119.957 6.59123 117.715 5.9082 115.381 5.9082C113.108 5.9082 111.199 6.23487 109.017 6.73971V29.1013H111.593V22.5086C111.593 22.3007 111.835 22.1523 112.047 22.271C113.229 23.0135 114.926 23.3698 116.321 23.3698C118.533 23.3698 120.503 22.6274 121.958 20.9347C123.412 19.2123 123.928 16.8663 123.928 14.6687ZM120.837 11.9053C121.109 12.7071 121.231 13.6277 121.231 14.6671C121.231 15.8549 121.079 17.221 120.564 18.3198C119.685 20.2797 118.018 21.23 115.896 21.23C114.472 21.23 112.805 20.7252 111.714 19.864C111.623 19.8046 111.593 19.7155 111.593 19.6264V8.72776C111.593 8.60897 111.684 8.49018 111.805 8.46049C112.926 8.16352 114.23 8.10413 115.381 8.10413C117.927 8.10413 120.018 9.41078 120.837 11.9053Z" fill="black" fill-opacity="0.95"/>
<path fill-rule="evenodd" clip-rule="evenodd" d="M150.084 14.6407C150.084 16.3334 149.751 18.0855 148.69 19.4516C147.72 20.6988 146.417 21.2631 144.811 21.2631C143.235 21.2631 141.901 20.6691 140.931 19.4516C139.992 18.2637 139.537 16.6601 139.537 14.6407C139.537 12.6214 139.992 11.0177 140.931 9.82988C141.901 8.58262 143.235 8.01838 144.811 8.01838C146.387 8.01838 147.72 8.61232 148.69 9.82988C149.751 11.1959 150.084 12.948 150.084 14.6407ZM152.626 16.5419C153.08 13.691 152.535 10.4244 150.535 8.2565C149.05 6.65288 147.019 5.85107 144.807 5.85107C142.594 5.85107 140.564 6.62319 139.079 8.2565C137.472 9.9789 136.836 12.3249 136.836 14.6413C136.836 16.9576 137.472 19.2739 139.079 21.026C140.564 22.6594 142.625 23.4315 144.807 23.4315C147.019 23.4315 149.05 22.6594 150.535 21.026C151.686 19.7788 152.353 18.1752 152.626 16.5419Z" fill="black" fill-opacity="0.95"/>
<path fill-rule="evenodd" clip-rule="evenodd" d="M49.1889 4.00658C49.7041 3.97689 50.2799 3.97689 50.9164 3.97689C51.7044 3.97689 52.4923 4.03628 53.2803 4.15507C53.9774 4.27385 54.6745 4.48173 55.2806 4.83809C55.8564 5.16475 56.3413 5.6399 56.705 6.20413C57.099 6.85746 57.2202 7.62957 57.2202 8.37199C57.2202 9.53016 56.9475 10.5695 56.0989 11.401C55.5837 11.9059 54.9472 12.2029 54.2805 12.4404C53.4622 12.7077 52.5833 12.7968 51.7347 12.8859C50.9164 12.9453 50.0678 12.9453 49.2495 12.9453C48.7343 12.9453 48.2191 12.9453 47.7038 12.9453V4.09567C48.1888 4.06598 48.6737 4.03628 49.1889 4.00658ZM54.6752 2.25285C52.9173 1.8371 51.0989 1.77771 49.2805 1.8668C47.8864 1.92619 46.462 2.01528 45.0981 2.31225V22.9811H47.6742V15.0521C49.2502 15.0521 50.9171 15.1115 52.4931 14.963C54.6145 14.7848 57.0088 14.2503 58.5241 12.6467C59.6152 11.4588 59.9789 10.0037 59.9789 8.45945C59.9789 6.88553 59.5546 5.46009 58.5545 4.36131C57.524 3.23284 56.0996 2.60921 54.6752 2.25285Z" fill="black" fill-opacity="0.95"/>
<path fill-rule="evenodd" clip-rule="evenodd" d="M75.4941 6.71001V22.9541H78.0702V8.69969C78.0702 8.5512 78.1612 8.43242 78.3127 8.43242C79.4644 8.19484 80.7373 8.10575 81.8889 8.10575C83.283 8.10575 84.7075 8.37302 85.5864 9.56089C86.2531 10.4518 86.435 11.699 86.5259 12.7681C86.5562 13.2136 86.5865 13.7184 86.5865 14.253V22.9838H89.1626V13.5699C89.1626 12.976 89.1323 12.4415 89.0717 11.9069C88.9201 10.5112 88.6171 9.14514 87.7079 8.01666C86.3744 6.35365 84.2832 5.9082 82.2223 5.9082C79.8887 5.9082 77.7672 6.17547 75.4941 6.71001Z" fill="black" fill-opacity="0.95"/>
</svg>
